<?xml version="1.0" encoding="UTF-8"?>
<!-- Uploaded to: SVG Repo, www.svgrepo.com, Generator: SVG Repo Mixer Tools -->
<svg width="800px" height="800px" viewBox="0 -0.5 34 34" version="1.1" xmlns="http://www.w3.org/2000/svg" xmlns:xlink="http://www.w3.org/1999/xlink">
    
    <title>casino-chips</title>
    <desc>Created with Sketch.</desc>
    <defs>
        <linearGradient x1="50%" y1="0%" x2="50%" y2="100%" id="linearGradient-1">
            <stop stop-color="#FAA27A" offset="0%">
</stop>
            <stop stop-color="#F3444D" offset="100%">
</stop>
        </linearGradient>
        <linearGradient x1="50%" y1="0%" x2="50%" y2="98.7559261%" id="linearGradient-2">
            <stop stop-color="#A03B2F" offset="0%">
</stop>
            <stop stop-color="#A32727" offset="100%">
</stop>
        </linearGradient>
        <linearGradient x1="50%" y1="0%" x2="50%" y2="100%" id="linearGradient-3">
            <stop stop-color="#35D735" offset="0%">
</stop>
            <stop stop-color="#178B16" offset="100%">
</stop>
        </linearGradient>
        <linearGradient x1="50%" y1="0%" x2="50%" y2="98.7559261%" id="linearGradient-4">
            <stop stop-color="#2FA032" offset="0%">
</stop>
            <stop stop-color="#145318" offset="100%">
</stop>
        </linearGradient>
        <linearGradient x1="50%" y1="0%" x2="50%" y2="100%" id="linearGradient-5">
            <stop stop-color="#7AA0FA" offset="0%">
</stop>
            <stop stop-color="#4466F3" offset="100%">
</stop>
        </linearGradient>
        <linearGradient x1="50%" y1="0%" x2="50%" y2="100%" id="linearGradient-6">
            <stop stop-color="#2F6DC8" offset="0%">
</stop>
            <stop stop-color="#153B97" offset="100%">
</stop>
        </linearGradient>
    </defs>
    <g id="icons" stroke="none" stroke-width="1" fill="none" fill-rule="evenodd">
        <g id="ui-gambling-website-lined-icnos-casinoshunter" transform="translate(-1643.000000, -2035.000000)" fill-rule="nonzero">
            <g id="4" transform="translate(50.000000, 1871.000000)">
                <g id="casino-chips" transform="translate(1593.000000, 164.000000)">
                    <g id="chip" transform="translate(14.000000, 8.000000)">
                        <path d="M10,0 C15.5228475,0 20,4.4771525 20,10 C20,15.5228475 15.5228475,20 10,20 C4.4771525,20 0,15.5228475 0,10 C0,4.4771525 4.4771525,0 10,0 Z" fill="url(#linearGradient-1)">
</path>
                        <path d="M10,0 C15.5228475,0 20,4.4771525 20,10 C20,15.5228475 15.5228475,20 10,20 C4.4771525,20 0,15.5228475 0,10 C0,4.4771525 4.4771525,0 10,0 Z M6.3418712,14.1812837 L6.31331168,14.2143258 L6.31331168,14.2143258 L3.98386226,16.5436455 C5.43958725,17.8827145 7.34332093,18.7422698 9.44456954,18.8718177 L9.44413072,15.5280937 C8.26165748,15.4106231 7.18826929,14.9223848 6.3418712,14.1812837 Z M10.5558693,15.5280937 L10.5554305,18.8718177 C12.73653,18.7373468 14.7048175,17.8163312 16.1801429,16.3889213 C16.1448134,16.3684026 16.1127521,16.3428708 16.083193,16.3133117 L13.811614,14.041777 C12.943282,14.8609592 11.8110298,15.4034021 10.5558693,15.5280937 Z M4.47170742,10.5538638 L4.44444444,10.5555556 L4.44444444,10.5555556 L1.12818228,10.5554305 C1.24974065,12.5270902 2.01404052,14.3248462 3.21413425,15.7417507 L5.52763748,13.4286516 L5.58929404,13.378316 C4.97683331,12.5798934 4.57628006,11.610385 4.47170742,10.5538638 Z M14.5413121,13.2009038 L16.8688672,15.5276375 L16.916561,15.5838051 C18.0413355,14.1923105 18.7547322,12.4545411 18.8718177,10.5554305 L15.5555556,10.5555556 L15.5282926,10.5538638 C15.4313476,11.5333209 15.0800257,12.437996 14.5413121,13.2009038 Z M10,5.55555556 C7.54540111,5.55555556 5.55555556,7.54540111 5.55555556,10 C5.55555556,12.4545989 7.54540111,14.4444444 10,14.4444444 C12.4545989,14.4444444 14.4444444,12.4545989 14.4444444,10 C14.4444444,7.54540111 12.4545989,5.55555556 10,5.55555556 Z M1.12818228,9.44456954 L4.44444444,9.44444444 L4.47170742,9.44613624 C4.57628006,8.38961501 4.97683331,7.42010656 5.58929404,6.62168402 L5.52763748,6.5713484 L3.21413425,4.2582493 C2.01404052,5.67515385 1.24974065,7.47290981 1.12818228,9.44456954 Z M16.6847368,4.1409268 L14.3195191,6.50600421 C14.9833598,7.32567096 15.4186158,8.33804649 15.5282926,9.44613624 L15.5555556,9.44444444 L15.5555556,9.44444444 L18.8718177,9.44456954 C18.7468789,7.41807878 17.9429527,5.57529866 16.6847368,4.1409268 Z M3.98386226,3.45635453 L6.31331168,5.7856742 C6.32395608,5.7963186 6.33407825,5.80728748 6.34367818,5.81854899 C7.18874778,5.07719626 8.26287116,4.58882494 9.44613624,4.47170742 C9.44468519,4.46347954 9.44444444,4.45399011 9.44444444,4.44444444 L9.44456954,1.12818228 C7.34332093,1.25773017 5.43958725,2.11728551 3.98386226,3.45635453 Z M10.5554305,1.12818228 L10.5555556,4.44444444 L10.5538638,4.47170742 C11.6820355,4.5833719 12.7109923,5.03252353 13.53837,5.71679809 L15.9017888,3.35297442 C14.4613726,2.07312067 12.6020948,1.2543649 10.5554305,1.12818228 Z" fill="url(#linearGradient-2)">
</path>
                    </g>
                    <g id="chip-copy-6" transform="translate(5.000000, 0.000000)">
                        <path d="M10,0 C15.5228475,0 20,4.4771525 20,10 C20,15.5228475 15.5228475,20 10,20 C4.4771525,20 0,15.5228475 0,10 C0,4.4771525 4.4771525,0 10,0 Z" id="chip" fill="url(#linearGradient-3)">
</path>
                        <path d="M10,0 C15.5228475,0 20,4.4771525 20,10 C20,15.5228475 15.5228475,20 10,20 C4.4771525,20 0,15.5228475 0,10 C0,4.4771525 4.4771525,0 10,0 Z M6.3418712,14.1812837 L6.31331168,14.2143258 L6.31331168,14.2143258 L3.98386226,16.5436455 C5.43958725,17.8827145 7.34332093,18.7422698 9.44456954,18.8718177 L9.44413072,15.5280937 C8.26165748,15.4106231 7.18826929,14.9223848 6.3418712,14.1812837 Z M10.5558693,15.5280937 L10.5554305,18.8718177 C12.73653,18.7373468 14.7048175,17.8163312 16.1801429,16.3889213 C16.1448134,16.3684026 16.1127521,16.3428708 16.083193,16.3133117 L13.811614,14.041777 C12.943282,14.8609592 11.8110298,15.4034021 10.5558693,15.5280937 Z M4.47170742,10.5538638 L4.44444444,10.5555556 L4.44444444,10.5555556 L1.12818228,10.5554305 C1.24974065,12.5270902 2.01404052,14.3248462 3.21413425,15.7417507 L5.52763748,13.4286516 L5.58929404,13.378316 C4.97683331,12.5798934 4.57628006,11.610385 4.47170742,10.5538638 Z M14.5413121,13.2009038 L16.8688672,15.5276375 L16.916561,15.5838051 C18.0413355,14.1923105 18.7547322,12.4545411 18.8718177,10.5554305 L15.5555556,10.5555556 L15.5282926,10.5538638 C15.4313476,11.5333209 15.0800257,12.437996 14.5413121,13.2009038 Z M10,5.55555556 C7.54540111,5.55555556 5.55555556,7.54540111 5.55555556,10 C5.55555556,12.4545989 7.54540111,14.4444444 10,14.4444444 C12.4545989,14.4444444 14.4444444,12.4545989 14.4444444,10 C14.4444444,7.54540111 12.4545989,5.55555556 10,5.55555556 Z M1.12818228,9.44456954 L4.44444444,9.44444444 L4.47170742,9.44613624 C4.57628006,8.38961501 4.97683331,7.42010656 5.58929404,6.62168402 L5.52763748,6.5713484 L3.21413425,4.2582493 C2.01404052,5.67515385 1.24974065,7.47290981 1.12818228,9.44456954 Z M16.6847368,4.1409268 L14.3195191,6.50600421 C14.9833598,7.32567096 15.4186158,8.33804649 15.5282926,9.44613624 L15.5555556,9.44444444 L15.5555556,9.44444444 L18.8718177,9.44456954 C18.7468789,7.41807878 17.9429527,5.57529866 16.6847368,4.1409268 Z M3.98386226,3.45635453 L6.31331168,5.7856742 C6.32395608,5.7963186 6.33407825,5.80728748 6.34367818,5.81854899 C7.18874778,5.07719626 8.26287116,4.58882494 9.44613624,4.47170742 C9.44468519,4.46347954 9.44444444,4.45399011 9.44444444,4.44444444 L9.44456954,1.12818228 C7.34332093,1.25773017 5.43958725,2.11728551 3.98386226,3.45635453 Z M10.5554305,1.12818228 L10.5555556,4.44444444 L10.5538638,4.47170742 C11.6820355,4.5833719 12.7109923,5.03252353 13.53837,5.71679809 L15.9017888,3.35297442 C14.4613726,2.07312067 12.6020948,1.2543649 10.5554305,1.12818228 Z" id="chip" fill="url(#linearGradient-4)">
</path>
                    </g>
                    <g id="chip-copy-7" transform="translate(0.000000, 13.000000)">
                        <path d="M10,0 C15.5228475,0 20,4.4771525 20,10 C20,15.5228475 15.5228475,20 10,20 C4.4771525,20 0,15.5228475 0,10 C0,4.4771525 4.4771525,0 10,0 Z" id="chip" fill="url(#linearGradient-5)">
</path>
                        <path d="M10,0 C15.5228475,0 20,4.4771525 20,10 C20,15.5228475 15.5228475,20 10,20 C4.4771525,20 0,15.5228475 0,10 C0,4.4771525 4.4771525,0 10,0 Z M6.3418712,14.1812837 L6.31331168,14.2143258 L6.31331168,14.2143258 L3.98386226,16.5436455 C5.43958725,17.8827145 7.34332093,18.7422698 9.44456954,18.8718177 L9.44413072,15.5280937 C8.26165748,15.4106231 7.18826929,14.9223848 6.3418712,14.1812837 Z M10.5558693,15.5280937 L10.5554305,18.8718177 C12.73653,18.7373468 14.7048175,17.8163312 16.1801429,16.3889213 C16.1448134,16.3684026 16.1127521,16.3428708 16.083193,16.3133117 L13.811614,14.041777 C12.943282,14.8609592 11.8110298,15.4034021 10.5558693,15.5280937 Z M4.47170742,10.5538638 L4.44444444,10.5555556 L4.44444444,10.5555556 L1.12818228,10.5554305 C1.24974065,12.5270902 2.01404052,14.3248462 3.21413425,15.7417507 L5.52763748,13.4286516 L5.58929404,13.378316 C4.97683331,12.5798934 4.57628006,11.610385 4.47170742,10.5538638 Z M14.5413121,13.2009038 L16.8688672,15.5276375 L16.916561,15.5838051 C18.0413355,14.1923105 18.7547322,12.4545411 18.8718177,10.5554305 L15.5555556,10.5555556 L15.5282926,10.5538638 C15.4313476,11.5333209 15.0800257,12.437996 14.5413121,13.2009038 Z M10,5.55555556 C7.54540111,5.55555556 5.55555556,7.54540111 5.55555556,10 C5.55555556,12.4545989 7.54540111,14.4444444 10,14.4444444 C12.4545989,14.4444444 14.4444444,12.4545989 14.4444444,10 C14.4444444,7.54540111 12.4545989,5.55555556 10,5.55555556 Z M1.12818228,9.44456954 L4.44444444,9.44444444 L4.47170742,9.44613624 C4.57628006,8.38961501 4.97683331,7.42010656 5.58929404,6.62168402 L5.52763748,6.5713484 L3.21413425,4.2582493 C2.01404052,5.67515385 1.24974065,7.47290981 1.12818228,9.44456954 Z M16.6847368,4.1409268 L14.3195191,6.50600421 C14.9833598,7.32567096 15.4186158,8.33804649 15.5282926,9.44613624 L15.5555556,9.44444444 L15.5555556,9.44444444 L18.8718177,9.44456954 C18.7468789,7.41807878 17.9429527,5.57529866 16.6847368,4.1409268 Z M3.98386226,3.45635453 L6.31331168,5.7856742 C6.32395608,5.7963186 6.33407825,5.80728748 6.34367818,5.81854899 C7.18874778,5.07719626 8.26287116,4.58882494 9.44613624,4.47170742 C9.44468519,4.46347954 9.44444444,4.45399011 9.44444444,4.44444444 L9.44456954,1.12818228 C7.34332093,1.25773017 5.43958725,2.11728551 3.98386226,3.45635453 Z M10.5554305,1.12818228 L10.5555556,4.44444444 L10.5538638,4.47170742 C11.6820355,4.5833719 12.7109923,5.03252353 13.53837,5.71679809 L15.9017888,3.35297442 C14.4613726,2.07312067 12.6020948,1.2543649 10.5554305,1.12818228 Z" id="chip" fill="url(#linearGradient-6)">
</path>
                    </g>
                </g>
            </g>
        </g>
    </g>
</svg>